<svg height="512pt" viewBox="-20 0 512 512" width="512pt" xmlns="http://www.w3.org/2000/svg"><linearGradient id="a" gradientUnits="userSpaceOnUse" x1="0" x2="471" y1="256" y2="256"><stop offset="0" stop-color="#2af598"/><stop offset="1" stop-color="#009efd"/></linearGradient><path d="M411 0H100C66.914 0 40 26.914 40 60v37H0v40h40v100H0v40h40v100H0v40h40v35c0 33.086 26.914 60 60 60h311c33.086 0 60-26.914 60-60V60c0-33.086-26.914-60-60-60zm20 452c0 11.027-8.973 20-20 20H100c-11.027 0-20-8.973-20-20v-35h9v-.05c.332.015.664.05 1 .05 11.047 0 20-8.953 20-20s-8.953-20-20-20c-.336 0-.668.035-1 .05V377h-9V277h9v-.05c.332.015.664.05 1 .05 11.047 0 20-8.953 20-20s-8.953-20-20-20c-.336 0-.668.035-1 .05V237h-9V137h9v-.05c.332.015.664.05 1 .05 11.047 0 20-8.953 20-20s-8.953-20-20-20c-.336 0-.668.035-1 .05V97h-9V60c0-11.027 8.973-20 20-20h311c11.027 0 20 8.973 20 20zM318.004 250.742c9.95-12.219 15.926-27.793 15.926-44.742 0-39.148-31.852-71-71-71-39.149 0-71 31.852-71 71 0 17.305 6.23 33.176 16.554 45.508C169.617 271.664 143 312.28 143 359h40c0-44.664 36.336-81 81-81s81 36.336 81 81h40c0-47.324-27.312-88.379-66.996-108.258zM262.93 175c17.093 0 31 13.906 31 31s-13.907 31-31 31-31-13.906-31-31 13.906-31 31-31zm0 0" fill="url(#a)"/></svg>